<mxfile host="65bd71144e">
    <diagram id="Ue0_HeUvscSYvJhOLlde" name="Page-1">
        <mxGraphModel dx="642" dy="418" grid="1" gridSize="10" guides="1" tooltips="1" connect="1" arrows="1" fold="1" page="1" pageScale="1" pageWidth="850" pageHeight="1100" math="0" shadow="0">
            <root>
                <mxCell id="0"/>
                <mxCell id="1" parent="0"/>
                <mxCell id="2" value="&lt;table border=&quot;1&quot; width=&quot;100%&quot; cellpadding=&quot;4&quot; style=&quot;width: 100% ; height: 100% ; border-collapse: collapse&quot;&gt;&lt;tbody&gt;&lt;tr&gt;&lt;th align=&quot;center&quot;&gt;Alarm Clock&lt;/th&gt;&lt;/tr&gt;&lt;tr&gt;&lt;td align=&quot;center&quot;&gt;Properties:&lt;br&gt;&lt;br&gt;self.current.time&lt;br&gt;&lt;br&gt;self.alarm on/off&lt;br&gt;&lt;br&gt;self.time alarm set too&lt;/td&gt;&lt;/tr&gt;&lt;tr&gt;&lt;td align=&quot;center&quot;&gt;Method&lt;br&gt;self.change current time(print to console)&lt;br&gt;&lt;br&gt;self.trigger alarm on/off&lt;br&gt;&lt;br&gt;self.set current alarm time and print to console current alarm time&lt;br&gt;&lt;br&gt;&lt;/td&gt;&lt;/tr&gt;&lt;/tbody&gt;&lt;/table&gt;" style="text;html=1;strokeColor=none;fillColor=none;overflow=fill;" parent="1" vertex="1">
                    <mxGeometry x="170" y="30" width="440" height="410" as="geometry"/>
                </mxCell>
            </root>
        </mxGraphModel>
    </diagram>
</mxfile>